HIERARCHY
ROOT Hips
{
	OFFSET 0.00000 0.00000 0.00000
	CHANNELS 6 Xposition Yposition Zposition Zrotation Yrotation Xrotation 
	JOINT LHipJoint
	{
		OFFSET 0 0 0
		CHANNELS 3 Zrotation Yrotation Xrotation
		JOINT LeftHip
		{
			OFFSET 1.78158 -1.79992 1.25746
			CHANNELS 3 Zrotation Yrotation Xrotation
			JOINT LeftKnee
			{
				OFFSET 2.48433 -6.82566 0.00000
				CHANNELS 3 Zrotation Yrotation Xrotation
				JOINT LeftAnkle
				{
					OFFSET 2.69722 -7.41057 0.00000
					CHANNELS 3 Zrotation Yrotation Xrotation
					JOINT LeftToe
					{
						OFFSET 0.10733 -0.29489 1.75071
						CHANNELS 3 Zrotation Yrotation Xrotation
						End Site
						{
							OFFSET 0.00000 -0.00000 0.90224
						}
					}
				}
			}
		}
	}
	JOINT RHipJoint
	{
		OFFSET 0 0 0
		CHANNELS 3 Zrotation Yrotation Xrotation
		JOINT RightHip
		{
			OFFSET -1.91234 -1.79993 1.25746
			CHANNELS 3 Zrotation Yrotation Xrotation
			JOINT RightKnee
			{
				OFFSET -2.33122 -6.40498 0.00000
				CHANNELS 3 Zrotation Yrotation Xrotation
				JOINT RightAnkle
				{
					OFFSET -2.75667 -7.57390 0.00000
					CHANNELS 3 Zrotation Yrotation Xrotation
					JOINT RightToe
					{
						OFFSET -0.15946 -0.43811 1.78925
						CHANNELS 3 Zrotation Yrotation Xrotation
						End Site
						{
							OFFSET -0.00000 -0.00000 0.93158
						}
					}
				}
			}
		}
	}
	JOINT lowerback
	{
		OFFSET 0 0 0
		CHANNELS 3 Zrotation Yrotation Xrotation
		JOINT Chest
		{
			OFFSET -0.02267 2.03993 -0.26238
			CHANNELS 3 Zrotation Yrotation Xrotation
			JOINT Chest2
			{
				OFFSET 0.02263 2.06220 -0.00892
				CHANNELS 3 Zrotation Yrotation Xrotation
				JOINT lowerneck
				{
					OFFSET 0 0 0
					CHANNELS 3 Zrotation Yrotation Xrotation
					JOINT Neck
					{
						OFFSET -0.06177 1.95978 0.28606
						CHANNELS 3 Zrotation Yrotation Xrotation
						JOINT Head
						{
							OFFSET 0.08482 1.96576 -0.43252
							CHANNELS 3 Zrotation Yrotation Xrotation
							End Site
							{
								OFFSET 0.02787 2.02739 -0.18071
							}
						}
					}
				}
				JOINT LeftCollar
				{
					OFFSET 0 0 0
					CHANNELS 3 Zrotation Yrotation Xrotation
					JOINT LeftShoulder
					{
						OFFSET 3.80978 1.64906 0.29973
CHANNELS 3 Zrotation Xrotation Yrotation
						JOINT LeftElbow
						{
OFFSET 0 -4.930420 0.000000
CHANNELS 3 Zrotation Xrotation Yrotation
							JOINT LeftWrist
							{
OFFSET 0 -3.681770 0.000000
CHANNELS 3 Zrotation Xrotation Yrotation
								JOINT lhand
								{
									OFFSET 0 0 0
CHANNELS 3 Zrotation Xrotation Yrotation
									JOINT LFingers
									{
OFFSET 0 -0.721480 0.000000
CHANNELS 3 Zrotation Xrotation Yrotation
										End Site
										{
OFFSET 0 -0.581680 0.000000
										}
									}
								}
								JOINT LThumb
								{
OFFSET 0 0.000000 0.000000
CHANNELS 3 Zrotation Xrotation Yrotation
									End Site
									{
OFFSET 0 -0.590560 0.590560
									}
								}
							}
						}
					}
				}
				JOINT RightCollar
				{
					OFFSET 0 0 0
					CHANNELS 3 Zrotation Yrotation Xrotation
					JOINT RightShoulder
					{
						OFFSET -3.49270 1.85636 0.09297
CHANNELS 3 Zrotation Xrotation Yrotation
						JOINT RightElbow
						{
OFFSET 0 -5.079050 -0.000000
CHANNELS 3 Zrotation Xrotation Yrotation
							JOINT RightWrist
							{
OFFSET 0 -3.543940 0.000000
CHANNELS 3 Zrotation Xrotation Yrotation
								JOINT rhand
								{
									OFFSET 0 0 0
CHANNELS 3 Zrotation Xrotation Yrotation
									JOINT RFingers
									{
OFFSET 0 -0.681160 0.000000
CHANNELS 3 Zrotation Xrotation Yrotation
										End Site
										{
OFFSET 0 -0.549170 0.000000
										}
									}
								}
								JOINT RThumb
								{
OFFSET 0 0.000000 0.000000
CHANNELS 3 Zrotation Xrotation Yrotation
									End Site
									{
OFFSET 0 -0.557550 0.557550
									}
								}
							}
						}
					}
				}
			}
		}
	}
}
MOTION
Frames: 8
Frame Time: 0.008333333333333333
-10.257056 18.070859 -16.370521 -165.991319 86.516832 -156.708272 0.000000 0.000000 0.000000 -8.605937 -16.767899 -12.365664 1.638855 8.069463 22.925207 0.945676 1.483506 -18.963687 1.667539 -8.135069 -23.125714 0.000000 0.000000 0.000000 12.768069 -1.797747 -1.462454 0.000000 0.000000 0.000000 0.586998 -14.471499 -11.161631 -0.304082 3.537838 -9.780717 1.291320 -0.896050 8.320676 2.178359 -0.906441 -1.406315 1.672441 -0.441266 -6.130263 -7.813967 -4.087215 -27.860882 5.423093 -4.013585 24.998711 2.670198 -1.703500 13.331196 0.000000 0.000000 0.000000 -14.223496 -66.002426 -57.259917 12.353769 -20.332525 2.224035 28.614323 -27.319637 -4.609743 0.000000 0.000000 0.000000 -7.125000 0.000000 0.000000 1.628657 35.223780 0.391216 0.000000 0.000000 0.000000 0.595619 -64.358609 41.265846 -17.185007 -27.099365 -4.172173 -24.896075 14.084246 37.619894 0.000000 0.000000 0.000000 7.125000 0.000000 0.000000 14.165630 69.860535 -8.480527
-10.248769 18.077883 -16.373087 -165.026255 86.554960 -155.591578 0.000000 0.000000 0.000000 -8.521788 -16.857960 -12.415192 1.627367 8.042530 22.843182 0.951752 1.513554 -19.035625 1.564364 -7.891621 -22.385958 0.000000 0.000000 0.000000 12.805677 -1.712263 -1.585697 0.000000 0.000000 0.000000 0.572241 -14.391401 -11.334085 -0.233842 3.104626 -8.570853 1.350365 -0.882254 8.322868 2.138432 -0.884804 -1.402016 1.594423 -0.433663 -6.128856 -7.520833 -4.034998 -28.038141 5.146317 -3.970506 25.239172 2.523442 -1.693496 13.447256 0.000000 0.000000 0.000000 -14.350598 -66.511535 -57.824081 12.025845 -19.842956 2.111349 28.642760 -27.383560 -4.696423 0.000000 0.000000 0.000000 -7.125000 0.000000 0.000000 1.651209 35.323551 0.392646 0.000000 0.000000 0.000000 0.904340 -64.984742 41.111182 -16.611644 -26.341369 -3.914329 -24.789533 14.695714 37.613984 0.000000 0.000000 0.000000 7.125000 0.000000 0.000000 14.299558 69.820630 -8.549145
-10.240526 18.084368 -16.376275 -163.922062 86.599132 -154.343701 0.000000 0.000000 0.000000 -8.436777 -16.937687 -12.462839 1.617638 8.019665 22.773688 0.958056 1.551914 -19.113192 1.479445 -7.684556 -21.760393 0.000000 0.000000 0.000000 12.847533 -1.618960 -1.699408 0.000000 0.000000 0.000000 0.559120 -14.323963 -11.493390 -0.177424 2.706671 -7.463497 1.434740 -0.850492 8.323212 2.087225 -0.837144 -1.403244 1.486994 -0.414359 -6.133043 -7.231216 -3.998715 -28.205102 4.886219 -3.954919 25.470633 2.377908 -1.693325 13.561026 0.000000 0.000000 0.000000 -14.576975 -66.956518 -58.480420 11.725475 -19.391315 2.010491 28.658955 -27.416094 -4.781017 0.000000 0.000000 0.000000 -7.125000 0.000000 0.000000 1.663462 35.420472 0.391650 0.000000 0.000000 0.000000 1.134204 -65.564890 40.794916 -16.046010 -25.581463 -3.666670 -24.691166 15.325158 37.607101 0.000000 0.000000 0.000000 7.125000 0.000000 0.000000 14.421257 69.782516 -8.610719
-10.232419 18.089656 -16.379908 -162.778618 86.653290 -153.077671 0.000000 0.000000 0.000000 -8.365100 -16.983175 -12.505041 1.610532 8.002857 22.722706 0.963414 1.599255 -19.185250 1.427542 -7.554974 -21.370400 0.000000 0.000000 0.000000 12.883788 -1.520557 -1.789202 0.000000 0.000000 0.000000 0.548283 -14.271433 -11.630844 -0.136027 2.372838 -6.537354 1.517584 -0.809098 8.332817 2.036207 -0.776498 -1.402344 1.378988 -0.388602 -6.140246 -6.992882 -3.975795 -28.339701 4.688239 -3.957723 25.660447 2.261050 -1.697491 13.655912 0.000000 0.000000 0.000000 -14.903054 -67.348720 -59.141229 11.444778 -18.966481 1.918229 28.665214 -27.358164 -4.843332 0.000000 0.000000 0.000000 -7.125000 0.000000 0.000000 1.667737 35.491630 0.389723 0.000000 0.000000 0.000000 1.323865 -66.113068 40.423974 -15.500306 -24.837163 -3.434132 -24.605740 15.915416 37.607658 0.000000 0.000000 0.000000 7.125000 0.000000 0.000000 14.534599 69.755624 -8.670727
-10.224385 18.093307 -16.383672 -161.727533 86.718445 -151.934646 0.000000 0.000000 0.000000 -8.319985 -16.975855 -12.538706 1.606138 7.992389 22.690950 0.966658 1.651973 -19.239564 1.416658 -7.527509 -21.287865 0.000000 0.000000 0.000000 12.905096 -1.422427 -1.845501 0.000000 0.000000 0.000000 0.540376 -14.236105 -11.738693 -0.108925 2.126127 -5.854416 1.570941 -0.770712 8.360832 1.996032 -0.721871 -1.394781 1.299911 -0.364560 -6.150103 -6.828832 -3.956734 -28.428174 4.570417 -3.961322 25.786922 2.187429 -1.698273 13.719483 0.000000 0.000000 0.000000 -15.277035 -67.697475 -59.689241 11.183119 -18.568110 1.833989 28.674655 -27.177190 -4.872931 0.000000 0.000000 0.000000 -7.125000 0.000000 0.000000 1.675155 35.525744 0.390062 0.000000 0.000000 0.000000 1.530098 -66.625749 40.137127 -15.004823 -24.151977 -3.228492 -24.540701 16.415280 37.617606 0.000000 0.000000 0.000000 7.125000 0.000000 0.000000 14.632158 69.744168 -8.726064
-10.216221 18.095262 -16.387232 -160.865007 86.793524 -151.013154 0.000000 0.000000 0.000000 -8.307198 -16.912235 -12.561814 1.603865 7.987013 22.674603 0.967446 1.705264 -19.270369 1.444658 -7.598027 -21.499735 0.000000 0.000000 0.000000 12.907550 -1.328871 -1.867787 0.000000 0.000000 0.000000 0.536084 -14.221545 -11.809583 -0.094637 1.984070 -5.461596 1.577048 -0.745402 8.411608 1.973296 -0.687924 -1.380660 1.268732 -0.348595 -6.164801 -6.733629 -3.931255 -28.468873 4.519673 -3.949084 25.846173 2.154472 -1.690049 13.747863 0.000000 0.000000 0.000000 -15.632218 -68.009131 -60.032889 10.943414 -18.201182 1.758361 28.698832 -26.873424 -4.872838 0.000000 0.000000 0.000000 -7.125000 0.000000 0.000000 1.695367 35.526830 0.394762 0.000000 0.000000 0.000000 1.802456 -67.083306 40.036514 -14.593239 -23.575965 -3.061739 -24.502935 16.806519 37.632557 0.000000 0.000000 0.000000 7.125000 0.000000 0.000000 14.700066 69.746300 -8.767826
-10.207832 18.095934 -16.390344 -160.212559 86.875404 -150.326466 0.000000 0.000000 0.000000 -8.322080 -16.807688 -12.574794 1.602898 7.984628 22.667350 0.966393 1.754681 -19.282015 1.498079 -7.730970 -21.899956 0.000000 0.000000 0.000000 12.893847 -1.241030 -1.865586 0.000000 0.000000 0.000000 0.535843 -14.230096 -11.839713 -0.091581 1.951988 -5.372894 1.534652 -0.735731 8.482154 1.968623 -0.678251 -1.363969 1.287323 -0.342465 -6.186945 -6.680605 -3.894221 -28.472581 4.500901 -3.913530 25.852157 2.145353 -1.672007 13.746771 0.000000 0.000000 0.000000 -15.925279 -68.287831 -60.149786 10.727870 -17.869706 1.691589 28.736767 -26.476038 -4.856925 0.000000 0.000000 0.000000 -7.125000 0.000000 0.000000 1.727374 35.510557 0.402903 0.000000 0.000000 0.000000 2.162939 -67.461360 40.139708 -14.285929 -23.141768 -2.939666 -24.475858 17.103196 37.649462 0.000000 0.000000 0.000000 7.125000 0.000000 0.000000 14.756342 69.753634 -8.804251
-10.199190 18.096062 -16.392824 -159.717886 86.958743 -149.809018 0.000000 0.000000 0.000000 -8.351259 -16.692709 -12.579875 1.602219 7.983044 22.662502 0.964919 1.797051 -19.287035 1.554979 -7.869914 -22.319734 0.000000 0.000000 0.000000 12.871895 -1.158194 -1.854971 0.000000 0.000000 0.000000 0.539217 -14.258887 -11.833565 -0.097659 2.014451 -5.545593 1.458422 -0.736711 8.562237 1.976783 -0.685234 -1.350009 1.340922 -0.343043 -6.216733 -6.635742 -3.848347 -28.458611 4.473935 -3.859832 25.830140 2.137574 -1.648451 13.729138 0.000000 0.000000 0.000000 -16.156866 -68.536814 -60.096227 10.535395 -17.572514 1.632961 28.772037 -26.029035 -4.841359 0.000000 0.000000 0.000000 -7.125000 0.000000 0.000000 1.757044 35.494597 0.410467 0.000000 0.000000 0.000000 2.596750 -67.745318 40.375444 -14.080352 -22.849353 -2.859274 -24.455102 17.360499 37.664464 0.000000 0.000000 0.000000 7.125000 0.000000 0.000000 14.801959 69.761148 -8.834377
